<svg xmlns="http://www.w3.org/2000/svg" viewBox="0 0 512 512">

	<path d="M504.738,197.069c-4.897-10.862-12.364-20.699-21.983-28.703c-8.342-6.954-17.118-12.216-26.153-15.706
		c-9.023-3.506-18.288-5.189-27.278-5.189c-14.331,0-27.73,4.22-39.282,10.838c-4.372,2.496-8.506,5.337-12.402,8.44l-5.513-42.709
		H183.044l-15.726,121.888L68.111,132.553L0,158.086l38.624,19.663l116.424,163.242l-6.059,46.97h257.194l-2.959-22.939
		c29.257-12.718,53.033-29.442,70.853-48.341c12.155-12.898,21.568-26.798,28.01-41.166c6.432-14.351,9.905-29.203,9.914-43.85
		C512.008,219.728,509.652,207.922,504.738,197.069z M465.83,259.26c-6.634,14.828-18.744,30.624-36.659,44.754
		c-8.974,7.093-19.4,13.768-31.276,19.721l-13.498-104.597c0.948-1.602,1.823-3.244,2.87-4.77
		c5.653-8.293,12.706-15.37,20.029-20.074c3.657-2.348,7.372-4.13,11.046-5.312c3.674-1.174,7.303-1.764,10.982-1.773
		c4.117,0.008,8.329,0.73,12.943,2.512c4.606,1.774,9.634,4.655,15.05,9.17c5.188,4.336,8.764,9.155,11.214,14.54
		c2.435,5.394,3.732,11.445,3.736,18.235C472.271,239.966,470.264,249.375,465.83,259.26z"></path>

</svg>
